HIERARCHY
ROOT Hips
{
 OFFSET 0.000000 0.000000 0.000000
 CHANNELS 6 Xposition Yposition Zposition Yrotation Xrotation Zrotation
 JOINT Chest
 {
  OFFSET 0.000000 9.585900 0.002600
  CHANNELS 3 Yrotation Xrotation Zrotation
  JOINT Chest2
  {
   OFFSET 0.000000 9.601200 -0.005300
   CHANNELS 3 Yrotation Xrotation Zrotation
   JOINT Chest3
   {
    OFFSET 0.000000 9.561800 0.000000
    CHANNELS 3 Yrotation Xrotation Zrotation
    JOINT Chest4
    {
     OFFSET 0.000000 9.552100 0.000000
     CHANNELS 3 Yrotation Xrotation Zrotation
     JOINT Neck
     {
      OFFSET 0.000000 14.453000 0.000000
      CHANNELS 3 Yrotation Xrotation Zrotation
      JOINT Head
      {
       OFFSET 0.000000 8.936500 -0.011300
       CHANNELS 3 Yrotation Xrotation Zrotation
       End Site
       {
        OFFSET 0.000000 17.073600 -0.006000
       }
      }
     }
     JOINT RightCollar
     {
      OFFSET -2.921100 9.558500 0.000000
      CHANNELS 3 Yrotation Xrotation Zrotation
      JOINT RightShoulder
      {
       OFFSET -13.519700 0.000000 0.000000
       CHANNELS 3 Yrotation Xrotation Zrotation
       JOINT RightElbow
       {
        OFFSET 0.000000 -29.696600 0.000000
        CHANNELS 3 Yrotation Xrotation Zrotation
        JOINT RightWrist
        {
         OFFSET 0.000000 -24.004700 0.000000
         CHANNELS 3 Yrotation Xrotation Zrotation
         End Site
         {
          OFFSET 0.000000 -17.728500 0.000000
         }
        }
       }
      }
     }
     JOINT LeftCollar
     {
      OFFSET 2.921100 9.558500 0.000000
      CHANNELS 3 Yrotation Xrotation Zrotation
      JOINT LeftShoulder
      {
       OFFSET 13.519700 0.000000 0.000000
       CHANNELS 3 Yrotation Xrotation Zrotation
       JOINT LeftElbow
       {
        OFFSET 0.000000 -29.696600 0.000000
        CHANNELS 3 Yrotation Xrotation Zrotation
        JOINT LeftWrist
        {
         OFFSET 0.000000 -24.004700 0.000000
         CHANNELS 3 Yrotation Xrotation Zrotation
         End Site
         {
          OFFSET 0.000000 -17.728500 0.000000
         }
        }
       }
      }
     }
    }
   }
  }
 }
 JOINT RightHip
 {
  OFFSET -7.771700 -0.012900 -0.001300
  CHANNELS 3 Yrotation Xrotation Zrotation
  JOINT RightKnee
  {
   OFFSET 0.000000 -40.869800 0.001200
   CHANNELS 3 Yrotation Xrotation Zrotation
   JOINT RightAnkle
   {
    OFFSET 0.000000 -39.717900 0.002100
    CHANNELS 3 Yrotation Xrotation Zrotation
    JOINT RightToe
    {
     OFFSET 0.000000 -4.965400 11.033500
     CHANNELS 3 Yrotation Xrotation Zrotation
     End Site
     {
      OFFSET 0.000000 -1.423100 5.872300
     }
    }
   }
  }
 }
 JOINT LeftHip
 {
  OFFSET 7.771700 -0.012900 -0.001300
  CHANNELS 3 Yrotation Xrotation Zrotation
  JOINT LeftKnee
  {
   OFFSET 0.000000 -40.869800 0.001200
   CHANNELS 3 Yrotation Xrotation Zrotation
   JOINT LeftAnkle
   {
    OFFSET 0.000000 -39.717900 0.002100
    CHANNELS 3 Yrotation Xrotation Zrotation
    JOINT LeftToe
    {
     OFFSET 0.000000 -4.965400 11.033500
     CHANNELS 3 Yrotation Xrotation Zrotation
     End Site
     {
      OFFSET 0.000000 -1.423100 5.872300
     }
    }
   }
  }
 }
}
MOTION
Frames: 16
Frame Time: 0.008333
-4.409181 55.268530 -23.565531 179.395167 -16.356884 -1.561318 1.104267 15.723973 0.891975 0.095928 1.513650 0.086949 0.170243 2.541363 0.137890 0.986056 13.963710 0.926060 1.486409 13.158089 -3.856766 2.459115 -11.841810 -4.460926 -0.499727 -0.249778 2.593112 0.914044 -4.130958 -8.382974 -81.845031 -63.421237 109.463562 -10.763867 7.315920 4.878803 -5.702266 -1.436134 2.448499 1.423871 -9.633053 7.056415 55.967985 -48.575945 -97.604510 9.466675 -4.859986 11.478397 0.108549 -58.481998 12.903516 -113.527296 88.638317 -118.148529 -10.915171 -22.794283 14.680852 0.026780 -0.093632 0.013723 10.351165 -55.328361 -5.803312 113.769701 77.362002 111.900404 -6.545135 -23.503459 0.585339 0.005159 0.186755 -0.000616
-4.410957 55.269626 -23.565548 179.397130 -16.349539 -1.557483 1.096286 15.717760 0.892327 0.094982 1.512663 0.087645 0.167098 2.539448 0.141050 0.979223 13.960348 0.930076 1.495628 13.166231 -3.860282 2.472568 -11.827151 -4.446346 -0.492686 -0.269583 2.596780 0.970619 -4.122353 -8.407635 -81.681213 -63.384536 109.373163 -10.834680 7.093096 4.889699 -5.705650 -1.449655 2.445878 1.416035 -9.716975 7.103062 56.023699 -48.606397 -97.615591 9.457749 -4.907967 11.464892 0.099113 -58.487890 12.904831 -113.427484 88.642922 -118.042983 -10.930608 -22.779865 14.679263 0.044135 -0.088453 0.008174 10.358108 -55.329922 -5.812243 113.743543 77.363393 111.870150 -6.549493 -23.508405 0.589933 0.005827 0.190001 -0.000608
-4.412452 55.270961 -23.566303 179.402264 -16.344558 -1.555478 1.088860 15.713670 0.891392 0.094394 1.512069 0.087989 0.161403 2.538292 0.144193 0.970348 13.954770 0.938115 1.506150 13.172852 -3.858814 2.479646 -11.820268 -4.457801 -0.487152 -0.287212 2.602789 1.026106 -4.114380 -8.437062 -81.559037 -63.347072 109.296597 -10.923165 6.892362 4.926766 -5.708343 -1.461646 2.443777 1.401689 -9.795419 7.150038 56.091305 -48.642581 -97.624227 9.446025 -4.971643 11.461400 0.096872 -58.491157 12.914467 -113.117941 88.635631 -117.710626 -11.058466 -22.761294 14.692841 0.018394 -0.066737 0.008816 10.357108 -55.329385 -5.818142 113.725031 77.360658 111.849148 -6.552807 -23.518095 0.586836 0.005344 0.195533 0.002866
-4.412141 55.272718 -23.568335 179.402313 -16.346008 -1.562073 1.090764 15.715627 0.902340 0.093649 1.511391 0.088261 0.158528 2.536076 0.149637 0.954686 13.950468 0.945922 1.516938 13.177462 -3.853481 2.493794 -11.811520 -4.464987 -0.479288 -0.306191 2.603009 1.076136 -4.104483 -8.462685 -81.514697 -63.330966 109.239497 -11.040705 6.726797 5.008447 -5.726192 -1.491384 2.452423 1.399458 -9.851929 7.181697 56.168096 -48.684545 -97.629107 9.430074 -5.044007 11.469728 0.086581 -58.485901 12.934554 -112.700289 88.629085 -117.283704 -11.103424 -22.749100 14.699193 0.015109 -0.062496 0.007250 10.344569 -55.325373 -5.806053 113.725228 77.362980 111.859358 -6.557459 -23.528103 0.570284 0.018137 0.200835 0.011879
-4.412040 55.274437 -23.570452 179.402385 -16.346432 -1.566929 1.085924 15.715308 0.915415 0.092256 1.510498 0.088961 0.156128 2.534396 0.150594 0.952145 13.951037 0.943706 1.521622 13.178802 -3.847183 2.506102 -11.807609 -4.453498 -0.496538 -0.346553 2.633738 1.138642 -4.074015 -8.505416 -81.260519 -63.240841 109.156274 -11.067579 6.470639 4.940077 -5.790296 -1.549641 2.506223 1.437856 -9.878747 7.174513 56.249640 -48.728049 -97.631621 9.411821 -5.119949 11.488891 0.084151 -58.481345 12.922329 -112.768689 88.640687 -117.363176 -10.978998 -22.753729 14.681255 0.019867 -0.069058 0.000874 10.337125 -55.323241 -5.797392 113.736373 77.363648 111.872545 -6.558473 -23.535871 0.566106 0.019973 0.200558 0.013732
-4.412247 55.275944 -23.572143 179.410299 -16.342832 -1.572117 1.071122 15.712314 0.931249 0.095810 1.509627 0.086063 0.142003 2.530899 0.162515 0.955231 13.953262 0.929732 1.525994 13.180951 -3.854325 2.509035 -11.807050 -4.448221 -0.495677 -0.355549 2.632013 1.162081 -4.069018 -8.516669 -81.104390 -63.180770 109.123739 -11.122356 6.257662 4.913305 -5.814059 -1.574158 2.528505 1.432634 -9.940726 7.189037 56.333452 -48.767313 -97.634185 9.393536 -5.195392 11.512512 0.077007 -58.480766 12.909783 -112.863430 88.649766 -117.464736 -10.884629 -22.756892 14.664159 0.023049 -0.072492 -0.000742 10.327967 -55.324897 -5.793877 113.755706 77.367051 111.892606 -6.559612 -23.542154 0.565843 0.017084 0.198667 0.013471
-4.413171 55.277257 -23.573663 179.411008 -16.337682 -1.571556 1.064684 15.707385 0.932888 0.089481 1.508708 0.090576 0.144762 2.530121 0.163822 0.933744 13.944908 0.943645 1.540550 13.188458 -3.861710 2.519040 -11.803042 -4.446915 -0.476011 -0.357643 2.611684 1.183345 -4.062064 -8.527415 -80.995500 -63.137918 109.107033 -11.186646 6.066001 4.899524 -5.816954 -1.589980 2.530081 1.431295 -10.003599 7.197076 56.411581 -48.799130 -97.636892 9.376878 -5.268739 11.535770 0.079995 -58.484438 12.911853 -112.597315 88.645718 -117.189860 -10.926576 -22.746198 14.663952 0.020434 -0.067015 0.006079 10.333023 -55.326496 -5.797936 113.759711 77.371322 111.898125 -6.565741 -23.545202 0.568590 0.020443 0.198136 0.013516
-4.414062 55.278426 -23.575083 179.411387 -16.332039 -1.572347 1.058972 15.703712 0.940493 0.088334 1.507353 0.091402 0.146054 2.528874 0.161639 0.929301 13.942473 0.944846 1.542037 13.186589 -3.844973 2.523945 -11.801130 -4.442097 -0.487950 -0.402053 2.627777 1.223797 -4.027113 -8.544625 -80.927332 -63.124831 109.067262 -11.262728 5.906161 4.919578 -5.840608 -1.610622 2.551119 1.437497 -10.066638 7.200641 56.420437 -48.776043 -97.592178 9.316513 -5.371857 11.547785 0.082188 -58.488882 12.917176 -112.114811 88.632423 -116.698176 -10.971196 -22.733772 14.665379 0.000506 -0.065200 0.012676 10.337209 -55.329136 -5.801473 113.762449 77.375398 111.903496 -6.567219 -23.549364 0.568487 0.021884 0.199247 0.014494
-4.415345 55.279573 -23.576788 179.409191 -16.329166 -1.571910 1.056983 15.702116 0.946498 0.087783 1.506561 0.092142 0.148747 2.528214 0.156108 0.922202 13.938494 0.959161 1.544037 13.186543 -3.838770 2.517654 -11.808659 -4.400795 -0.488238 -0.417988 2.618272 1.250293 -4.021303 -8.540703 -80.793853 -63.095089 109.039785 -11.303031 5.721443 4.868045 -5.848248 -1.619825 2.547890 1.430317 -10.139780 7.216768 56.507479 -48.813682 -97.611389 9.340418 -5.427474 11.562198 0.099999 -58.490703 12.903460 -111.500231 88.606697 -116.077810 -10.952059 -22.728662 14.666320 0.030755 -0.058685 0.015602 10.342605 -55.330659 -5.804751 113.787722 77.375269 111.925705 -6.561412 -23.554496 0.572462 0.016247 0.197965 0.013164
-4.416479 55.280503 -23.577905 179.410490 -16.324459 -1.575625 1.052740 15.700121 0.956750 0.087448 1.505542 0.092773 0.148347 2.526515 0.157159 0.920845 13.934042 0.965511 1.544216 13.186644 -3.830838 2.515085 -11.809203 -4.399156 -0.489744 -0.422688 2.605252 1.284020 -4.034562 -8.521926 -80.662872 -63.083534 108.995745 -11.343129 5.547609 4.811848 -5.860136 -1.628383 2.546028 1.425398 -10.209099 7.230621 56.587986 -48.839496 -97.624776 9.366938 -5.478441 11.565958 0.101441 -58.492864 12.894554 -111.388739 88.609862 -115.969956 -10.912732 -22.726959 14.660700 0.080864 -0.051621 0.017081 10.338535 -55.335581 -5.802087 113.790943 77.373865 111.929427 -6.561833 -23.555252 0.571458 0.017945 0.195973 0.013166
-4.418219 55.281311 -23.578709 179.413790 -16.320394 -1.578619 1.045616 15.698320 0.967806 0.087853 1.504258 0.093153 0.149289 2.526615 0.153338 0.917428 13.932140 0.971531 1.542233 13.174643 -3.793799 2.526556 -11.796164 -4.442463 -0.491603 -0.430332 2.595246 1.301422 -4.033589 -8.518741 -80.598115 -63.074989 108.984606 -11.395973 5.404871 4.793669 -5.881655 -1.642593 2.558601 1.435762 -10.272621 7.233576 56.585648 -48.807198 -97.580932 9.339877 -5.572151 11.561436 0.102038 -58.497444 12.897921 -111.090239 88.601448 -115.660102 -10.971898 -22.709956 14.653359 0.035786 -0.053793 0.029172 10.332343 -55.341285 -5.801591 113.787442 77.367459 111.926449 -6.566143 -23.553161 0.570113 0.018541 0.191716 0.012563
-4.422351 55.281713 -23.578232 179.415115 -16.311419 -1.569000 1.039513 15.689781 0.959189 0.088814 1.503823 0.092375 0.141555 2.524138 0.163902 0.920415 13.929430 0.974250 1.537170 13.173697 -3.783648 2.525558 -11.800320 -4.431749 -0.501622 -0.448334 2.588968 1.317210 -4.011984 -8.525786 -80.519434 -63.058814 108.983140 -11.438811 5.257538 4.763566 -5.901432 -1.649317 2.564767 1.444829 -10.334918 7.239143 56.659876 -48.822975 -97.599253 9.368857 -5.627089 11.570153 0.121943 -58.509556 12.904707 -110.277845 88.564934 -114.818538 -11.187767 -22.678533 14.679420 0.005068 -0.043193 0.039397 10.360186 -55.345479 -5.838793 113.740825 77.357042 111.883054 -6.565661 -23.550745 0.574644 0.011404 0.190725 0.008295
-4.425612 55.282096 -23.577523 179.415975 -16.304601 -1.566254 1.035427 15.683561 0.957300 0.086342 1.503618 0.094823 0.139878 2.524256 0.161885 0.912118 13.926387 0.984978 1.543281 13.173096 -3.781162 2.517617 -11.808221 -4.407481 -0.492309 -0.453835 2.574799 1.336562 -4.012778 -8.516358 -80.406746 -63.047940 108.953318 -11.473241 5.099397 4.722800 -5.936237 -1.652310 2.588535 1.486703 -10.396927 7.223529 56.736360 -48.845188 -97.629990 9.397061 -5.684614 11.594960 0.128036 -58.516908 12.896945 -110.138192 88.563864 -114.678116 -11.192471 -22.667182 14.672826 0.005339 -0.047241 0.038558 10.366054 -55.349389 -5.849904 113.714312 77.351469 111.852961 -6.568663 -23.554029 0.580834 0.006845 0.193622 0.004841
-4.428027 55.282679 -23.577296 179.408960 -16.304380 -1.567643 1.036332 15.684281 0.959721 0.086105 1.503625 0.095076 0.143560 2.523205 0.162531 0.913529 13.927791 0.985573 1.542708 13.170791 -3.777677 2.495482 -11.826487 -4.328817 -0.500166 -0.468374 2.575773 1.371708 -4.002455 -8.513117 -80.327667 -63.037344 108.925629 -11.480419 5.001730 4.681788 -5.972670 -1.655165 2.615835 1.520884 -10.443736 7.211454 56.803172 -48.865842 -97.664873 9.399924 -5.754595 11.628957 0.143255 -58.517684 12.871835 -110.352359 88.585276 -114.908691 -11.028712 -22.668957 14.643549 0.013690 -0.062135 0.030574 10.368955 -55.347689 -5.847849 113.692964 77.347567 111.830510 -6.569373 -23.558800 0.581531 0.003960 0.196346 0.004212
-4.430538 55.283221 -23.577003 179.409808 -16.306255 -1.571434 1.030473 15.685108 0.963027 0.086433 1.503971 0.095006 0.151289 2.523809 0.163181 0.912093 13.928616 0.984868 1.538658 13.165747 -3.754903 2.478809 -11.835262 -4.288676 -0.512816 -0.483751 2.581453 1.407318 -3.990282 -8.513002 -80.240381 -63.022727 108.888279 -11.533615 4.829550 4.678985 -6.001002 -1.661006 2.635245 1.548493 -10.453574 7.197765 56.900916 -48.910335 -97.736623 9.398212 -5.816985 11.667927 0.148385 -58.514891 12.866553 -110.311317 88.594511 -114.871987 -10.968521 -22.665572 14.631660 0.042164 -0.064182 0.028032 10.364471 -55.345416 -5.843366 113.685652 77.346662 111.823327 -6.570862 -23.564305 0.575265 0.007201 0.198816 0.010343
-4.433825 55.283817 -23.577129 179.410393 -16.312599 -1.570620 1.034044 15.688746 0.966266 0.086627 1.504655 0.095067 0.151495 2.526758 0.160995 0.910475 13.928119 0.986095 1.533452 13.161324 -3.730756 2.462439 -11.839924 -4.260227 -0.522937 -0.502205 2.581754 1.435076 -3.973016 -8.508457 -80.153768 -63.003051 108.851453 -11.587911 4.660459 4.678394 -6.028407 -1.668938 2.652033 1.555400 -10.561069 7.213717 56.918647 -48.872477 -97.696460 9.394074 -5.870793 11.708696 0.150993 -58.507221 12.861841 -110.290688 88.600855 -114.856706 -10.920482 -22.662870 14.620123 0.018492 -0.072616 0.024848 10.366137 -55.337826 -5.843148 113.705703 77.349599 111.835935 -6.568564 -23.568587 0.583156 0.003358 0.196688 0.008966
